<svg version="1" id="Ebene_1" xmlns="http://www.w3.org/2000/svg" viewBox="0 0 683 399.9"><style>.st0{fill:#df6e08}.st1{fill:none}</style><path class="st0" d="M173.7 197.4c0-88.7 74.5-168.1 171.2-165.4 87.7 2.4 162.5 75.5 161 168.9-1.4 88.6-73.7 165.3-169.5 163.4-90.8-1.8-162.9-77.1-162.7-166.9zm57.4-42.4c1.3.5 1.6.8 1.8.8 1.1-.2 2.3-.3 3.4-.7 14.1-4.7 28.6-7.4 43.4-8.4 22.2-1.5 43.9-.4 64.7 8.2 15.5 6.4 31.2 11.2 48.4 10.2 18.2-1 35.4-5.9 52.2-12.3 1.5-.6 2.7-1.8 4.1-2.7-.2-.4-.3-.8-.5-1.2-3.1 0-6.1-.1-9.2 0-28.2 1.6-55.6-1.3-82.3-11.6-11.8-4.6-24.5-7.9-37.1-9.3-31.1-3.5-59.8 4-85.2 22.9-1.2 1.1-2.2 2.6-3.7 4.1zm58.1 168l2.1-.3c.3-1.9.8-3.8.7-5.6-.5-12.8-2-25.6-1.4-38.4 1.6-32.3 11.8-61.2 36.3-83.8 4.5-4.1 8.4-9 12.2-13.8 2.7-3.4 3.9-7.5 1.2-11.6-2.6-4-6.8-5.3-10.9-3.8-5.2 1.8-10.7 3.9-15.1 7.2-10.9 8.4-19.5 18.9-26.5 30.8-6 10.3-11 20.8-13.3 32.6-4.8 24.7-.6 48.3 7.7 71.5 2.1 5.2 4.8 10.1 7 15.2zm77.1-196.8c10 0 17.2-7 17.3-16.8.1-9.4-7.5-17.4-16.3-17.4-10.6.1-17.9 7.1-17.9 17.1 0 10.1 7 17.2 16.9 17.1z"/><path class="st1" d="M231.1 155c1.4-1.5 2.5-3 3.9-4 25.4-18.9 54.1-26.4 85.2-22.9 12.6 1.4 25.3 4.7 37.1 9.3 26.7 10.3 54.1 13.2 82.3 11.6 3-.2 6.1 0 9.2 0 .2.4.3.8.5 1.2-1.4.9-2.6 2.2-4.1 2.7-16.9 6.3-34.1 11.2-52.2 12.3-17.1 1-32.8-3.8-48.4-10.2-20.8-8.6-42.6-9.7-64.7-8.2-14.9 1-29.3 3.7-43.4 8.4-1.1.4-2.3.5-3.4.7-.4-.1-.7-.4-2-.9zM289.2 323c-2.3-5.1-5-10-6.8-15.2-8.4-23.2-12.6-46.9-7.7-71.5 2.3-11.8 7.3-22.4 13.3-32.6 7-11.9 15.6-22.4 26.5-30.8 4.3-3.3 9.8-5.4 15.1-7.2 4.2-1.5 8.4-.2 10.9 3.8 2.6 4.1 1.4 8.2-1.2 11.6-3.8 4.8-7.7 9.7-12.2 13.8-24.6 22.6-34.7 51.5-36.3 83.8-.6 12.7.9 25.6 1.4 38.4.1 1.9-.5 3.7-.7 5.6-.8.1-1.5.2-2.3.3zM366.3 126.2c-9.9 0-17-7-17-17 0-10.1 7.3-17.1 17.9-17.1 8.9 0 16.4 8 16.3 17.4 0 9.7-7.2 16.7-17.2 16.7z"/></svg>